<?xml version="1.0" encoding="UTF-8"?>
<svg width="48px" height="9px" viewBox="0 0 48 9" version="1.1" xmlns="http://www.w3.org/2000/svg" xmlns:xlink="http://www.w3.org/1999/xlink">
    <!-- Generator: Sketch 49.1 (51147) - http://www.bohemiancoding.com/sketch -->
    <title>Group 5</title>
    <desc>Created with Sketch.</desc>
    <defs></defs>
    <g id="Total_Dorm_360" stroke="none" stroke-width="1" fill="none" fill-rule="evenodd">
        <g id="360_Expand_04" transform="translate(-75.000000, -311.000000)" stroke-width="0.3">
            <g id="Group-4" transform="translate(75.000000, 311.000000)">
                <g id="Group-5">
                    <g id="_starGrey" transform="translate(39.000000, 0.000000)" fill="#FFFFFF" stroke="#ADADAD">
                        <polygon id="Star-Copy-5" points="4.3249791 6.82132821 1.65199501 8.22659911 2.16248955 5.25018759 -2.55351296e-15 3.14228125 2.98848706 2.70802866 4.3249791 0 5.66147114 2.70802866 8.6499582 3.14228125 6.48746865 5.25018759 6.99796318 8.22659911"></polygon>
                    </g>
                    <g id="_starGold" transform="translate(29.250000, 0.000000)" fill="#FFD802" stroke="#CA8602">
                        <polygon id="Star-Copy-5" points="4.3249791 6.82132821 1.65199501 8.22659911 2.16248955 5.25018759 -2.49800181e-15 3.14228125 2.98848706 2.70802866 4.3249791 0 5.66147114 2.70802866 8.6499582 3.14228125 6.48746865 5.25018759 6.99796318 8.22659911"></polygon>
                    </g>
                    <g id="_starGold" fill="#FFD802" stroke="#CA8602">
                        <polygon id="Star-Copy-5" points="4.3249791 6.82132821 1.65199501 8.22659911 2.16248955 5.25018759 -2.49800181e-15 3.14228125 2.98848706 2.70802866 4.3249791 0 5.66147114 2.70802866 8.6499582 3.14228125 6.48746865 5.25018759 6.99796318 8.22659911"></polygon>
                    </g>
                    <g id="_starGold" transform="translate(19.500000, 0.000000)" fill="#FFD802" stroke="#CA8602">
                        <polygon id="Star-Copy-5" points="4.3249791 6.82132821 1.65199501 8.22659911 2.16248955 5.25018759 -2.49800181e-15 3.14228125 2.98848706 2.70802866 4.3249791 0 5.66147114 2.70802866 8.6499582 3.14228125 6.48746865 5.25018759 6.99796318 8.22659911"></polygon>
                    </g>
                    <g id="_starGold" transform="translate(9.750000, 0.000000)" fill="#FFD802" stroke="#CA8602">
                        <polygon id="Star-Copy-5" points="4.3249791 6.82132821 1.65199501 8.22659911 2.16248955 5.25018759 -2.49800181e-15 3.14228125 2.98848706 2.70802866 4.3249791 0 5.66147114 2.70802866 8.6499582 3.14228125 6.48746865 5.25018759 6.99796318 8.22659911"></polygon>
                    </g>
                </g>
            </g>
        </g>
    </g>
</svg>