<?xml version="1.0" encoding="UTF-8"?>
<svg width="398px" height="398px" viewBox="0 0 398 398" version="1.1" xmlns="http://www.w3.org/2000/svg" xmlns:xlink="http://www.w3.org/1999/xlink">
    <!-- Generator: Sketch 49.1 (51147) - http://www.bohemiancoding.com/sketch -->
    <title>Bullseye_Red Copy</title>
    <desc>Created with Sketch.</desc>
    <defs>
        <polygon id="path-1" points="0 0 398 0 398 398 0 398"></polygon>
    </defs>
    <g id="Bullseye_Red-Copy" stroke="none" stroke-width="1" fill="none" fill-rule="evenodd">
        <g id="Page-1">
            <mask id="mask-2" fill="white">
                <use xlink:href="#path-1"></use>
            </mask>
            <g id="Clip-2"></g>
            <path d="M198.994472,266.372556 C236.887389,266.372556 267.616306,235.643639 267.616306,197.739667 C267.616306,159.824639 236.887389,129.112306 198.994472,129.112306 C161.096028,129.112306 130.345,159.824639 130.345,197.739667 C130.345,235.643639 161.096028,266.372556 198.994472,266.372556 M198.994472,331.18575 C271.977722,331.18575 331.169167,272.010889 331.169167,199.027639 C331.169167,126.011222 271.977722,66.8253056 198.994472,66.8253056 C125.994639,66.8253056 66.81425,126.011222 66.81425,199.027639 C66.81425,272.010889 125.994639,331.18575 198.994472,331.18575 M0,199.027639 C0,89.0911944 89.0801389,0 198.994472,0 C308.903278,0 398,89.0911944 398,199.027639 C398,308.89775 308.903278,398 198.994472,398 C89.0801389,398 0,308.89775 0,199.027639" id="Fill-1" fill="#CC0000" mask="url(#mask-2)"></path>
        </g>
    </g>
</svg>