<?xml version="1.0" encoding="UTF-8"?>
<svg width="190px" height="12px" viewBox="0 0 190 12" version="1.1" xmlns="http://www.w3.org/2000/svg" xmlns:xlink="http://www.w3.org/1999/xlink">
    <!-- Generator: Sketch 49.1 (51147) - http://www.bohemiancoding.com/sketch -->
    <title>explore even more at</title>
    <desc>Created with Sketch.</desc>
    <defs></defs>
    <g id="Total_Dorm_360" stroke="none" stroke-width="1" fill="none" fill-rule="evenodd">
        <g id="360_Expand_03_timeout" transform="translate(-65.000000, -446.000000)" fill="#FFFFFF">
            <path d="M68.638,448.628 C70.594,448.628 71.662,450.164 71.662,452 C71.662,452.096 71.65,452.312 71.65,452.312 L67.174,452.312 C67.222,453.38 67.714,453.884 68.686,453.884 C69.334,453.884 69.91,453.512 70.042,453.08 L71.542,453.08 C71.086,454.484 70.126,455.168 68.638,455.168 C66.67,455.168 65.47,453.812 65.47,451.904 C65.47,450.032 66.766,448.628 68.638,448.628 Z M67.174,451.232 L69.946,451.232 C69.778,450.296 69.37,449.912 68.578,449.912 C67.75,449.912 67.246,450.416 67.174,451.232 Z M72.202,448.796 L74.146,448.796 L75.238,450.416 L76.318,448.796 L78.202,448.796 L76.162,451.7 L78.454,455 L76.51,455 L75.214,453.044 L73.918,455 L72.01,455 L74.242,451.736 L72.202,448.796 Z M82.594,448.628 C84.478,448.628 85.414,450.116 85.414,451.964 C85.414,453.668 84.478,455.168 82.69,455.168 C81.922,455.168 81.238,454.832 80.83,454.232 L80.806,454.232 L80.806,457.184 L79.102,457.184 L79.102,448.796 L80.722,448.796 L80.722,449.588 L80.746,449.588 C81.154,448.94 81.79,448.628 82.594,448.628 Z M80.746,451.916 C80.746,453.032 81.202,453.884 82.234,453.884 C83.29,453.884 83.71,453.02 83.71,451.916 C83.71,450.968 83.35,449.912 82.21,449.912 C81.274,449.912 80.746,450.656 80.746,451.916 Z M86.482,446.432 L88.186,446.432 L88.186,455 L86.482,455 L86.482,446.432 Z M92.542,448.628 C94.51,448.628 95.758,449.936 95.758,451.904 C95.758,453.908 94.45,455.168 92.542,455.168 C90.586,455.168 89.338,453.86 89.338,451.904 C89.338,449.924 90.598,448.628 92.542,448.628 Z M91.042,451.904 C91.042,453.164 91.57,453.884 92.542,453.884 C93.55,453.884 94.054,453.128 94.054,451.904 C94.054,450.896 93.706,449.912 92.53,449.912 C91.582,449.912 91.042,450.632 91.042,451.904 Z M100.486,448.628 C100.654,448.628 100.774,448.664 100.858,448.688 L100.858,450.272 C100.69,450.236 100.486,450.212 100.246,450.212 C99.01,450.212 98.566,451.064 98.566,452.204 L98.566,455 L96.862,455 L96.862,448.796 L98.482,448.796 L98.482,449.948 L98.506,449.948 C98.83,449.168 99.634,448.628 100.486,448.628 Z M104.398,448.628 C106.354,448.628 107.422,450.164 107.422,452 C107.422,452.096 107.41,452.312 107.41,452.312 L102.934,452.312 C102.982,453.38 103.474,453.884 104.446,453.884 C105.094,453.884 105.67,453.512 105.802,453.08 L107.302,453.08 C106.846,454.484 105.886,455.168 104.398,455.168 C102.43,455.168 101.23,453.812 101.23,451.904 C101.23,450.032 102.526,448.628 104.398,448.628 Z M102.934,451.232 L105.706,451.232 C105.538,450.296 105.13,449.912 104.338,449.912 C103.51,449.912 103.006,450.416 102.934,451.232 Z M114.622,448.628 C116.578,448.628 117.646,450.164 117.646,452 C117.646,452.096 117.634,452.312 117.634,452.312 L113.158,452.312 C113.206,453.38 113.698,453.884 114.67,453.884 C115.318,453.884 115.894,453.512 116.026,453.08 L117.526,453.08 C117.07,454.484 116.11,455.168 114.622,455.168 C112.654,455.168 111.454,453.812 111.454,451.904 C111.454,450.032 112.75,448.628 114.622,448.628 Z M113.158,451.232 L115.93,451.232 C115.762,450.296 115.354,449.912 114.562,449.912 C113.734,449.912 113.23,450.416 113.158,451.232 Z M118.054,448.796 L119.842,448.796 L121.15,453.032 L121.174,453.032 L122.482,448.796 L124.174,448.796 L122.074,455 L120.178,455 L118.054,448.796 Z M127.75,448.628 C129.706,448.628 130.774,450.164 130.774,452 C130.774,452.096 130.762,452.312 130.762,452.312 L126.286,452.312 C126.334,453.38 126.826,453.884 127.798,453.884 C128.446,453.884 129.022,453.512 129.154,453.08 L130.654,453.08 C130.198,454.484 129.238,455.168 127.75,455.168 C125.782,455.168 124.582,453.812 124.582,451.904 C124.582,450.032 125.878,448.628 127.75,448.628 Z M126.286,451.232 L129.058,451.232 C128.89,450.296 128.482,449.912 127.69,449.912 C126.862,449.912 126.358,450.416 126.286,451.232 Z M135.334,448.628 C136.906,448.628 137.59,449.396 137.59,451.136 L137.59,455 L135.886,455 L135.886,451.484 C135.886,450.464 135.586,449.972 134.794,449.972 C133.738,449.972 133.474,450.668 133.474,451.772 L133.474,455 L131.77,455 L131.77,448.796 L133.39,448.796 L133.39,449.66 L133.426,449.66 C133.834,449 134.53,448.628 135.334,448.628 Z M145.798,448.628 C146.722,448.628 147.322,449.012 147.61,449.66 C148.066,449 148.738,448.628 149.494,448.628 C151.03,448.628 151.75,449.468 151.75,450.836 L151.75,455 L150.046,455 L150.046,451.412 C150.046,450.596 149.926,449.972 149.002,449.972 C148.198,449.972 147.862,450.536 147.862,451.532 L147.862,455 L146.158,455 L146.158,451.34 C146.158,450.536 146.038,449.972 145.126,449.972 C144.73,449.972 143.974,450.248 143.974,451.388 L143.974,455 L142.27,455 L142.27,448.796 L143.878,448.796 L143.878,449.636 L143.902,449.636 C144.382,448.952 145.03,448.628 145.798,448.628 Z M156.106,448.628 C158.074,448.628 159.322,449.936 159.322,451.904 C159.322,453.908 158.014,455.168 156.106,455.168 C154.15,455.168 152.902,453.86 152.902,451.904 C152.902,449.924 154.162,448.628 156.106,448.628 Z M154.606,451.904 C154.606,453.164 155.134,453.884 156.106,453.884 C157.114,453.884 157.618,453.128 157.618,451.904 C157.618,450.896 157.27,449.912 156.094,449.912 C155.146,449.912 154.606,450.632 154.606,451.904 Z M164.05,448.628 C164.218,448.628 164.338,448.664 164.422,448.688 L164.422,450.272 C164.254,450.236 164.05,450.212 163.81,450.212 C162.574,450.212 162.13,451.064 162.13,452.204 L162.13,455 L160.426,455 L160.426,448.796 L162.046,448.796 L162.046,449.948 L162.07,449.948 C162.394,449.168 163.198,448.628 164.05,448.628 Z M167.962,448.628 C169.918,448.628 170.986,450.164 170.986,452 C170.986,452.096 170.974,452.312 170.974,452.312 L166.498,452.312 C166.546,453.38 167.038,453.884 168.01,453.884 C168.658,453.884 169.234,453.512 169.366,453.08 L170.866,453.08 C170.41,454.484 169.45,455.168 167.962,455.168 C165.994,455.168 164.794,453.812 164.794,451.904 C164.794,450.032 166.09,448.628 167.962,448.628 Z M166.498,451.232 L169.27,451.232 C169.102,450.296 168.694,449.912 167.902,449.912 C167.074,449.912 166.57,450.416 166.498,451.232 Z M180.886,450.392 L180.886,453.38 C180.886,453.788 180.958,453.872 181.318,453.872 L181.366,453.872 L181.366,454.976 C181.21,455.048 181.018,455.12 180.658,455.12 C179.866,455.12 179.458,454.88 179.326,454.316 C178.918,454.808 178.198,455.168 177.166,455.168 C175.894,455.168 175.054,454.508 175.054,453.308 C175.054,452.708 175.246,452.288 175.594,451.988 C175.99,451.652 176.566,451.472 177.598,451.364 C178.702,451.244 179.182,451.148 179.182,450.596 C179.182,449.888 178.666,449.768 178.09,449.768 C177.382,449.768 177.01,450.056 176.95,450.704 L175.246,450.704 C175.318,449.348 176.434,448.628 178.174,448.628 C179.986,448.628 180.886,449.24 180.886,450.392 Z M176.758,453.236 C176.758,453.728 177.058,454.028 177.802,454.028 C178.714,454.028 179.182,453.536 179.182,452.624 L179.182,451.964 C179.026,452.108 178.726,452.192 178.15,452.264 C177.274,452.372 176.758,452.564 176.758,453.236 Z M182.662,446.936 L184.366,446.936 L184.366,448.796 L185.614,448.796 L185.614,449.936 L184.366,449.936 L184.366,453.008 C184.366,453.584 184.51,453.728 185.086,453.728 C185.278,453.728 185.47,453.716 185.614,453.68 L185.614,455.012 C185.326,455.06 184.942,455.072 184.606,455.072 C183.298,455.072 182.662,454.676 182.662,453.572 L182.662,449.936 L181.63,449.936 L181.63,448.796 L182.662,448.796 L182.662,446.936 Z M189.274,446.432 L196.294,446.432 L196.294,448.016 L193.726,448.016 L193.726,455 L191.842,455 L191.842,448.016 L189.274,448.016 L189.274,446.432 Z M202.666,450.392 L202.666,453.38 C202.666,453.788 202.738,453.872 203.098,453.872 L203.146,453.872 L203.146,454.976 C202.99,455.048 202.798,455.12 202.438,455.12 C201.646,455.12 201.238,454.88 201.106,454.316 C200.698,454.808 199.978,455.168 198.946,455.168 C197.674,455.168 196.834,454.508 196.834,453.308 C196.834,452.708 197.026,452.288 197.374,451.988 C197.77,451.652 198.346,451.472 199.378,451.364 C200.482,451.244 200.962,451.148 200.962,450.596 C200.962,449.888 200.446,449.768 199.87,449.768 C199.162,449.768 198.79,450.056 198.73,450.704 L197.026,450.704 C197.098,449.348 198.214,448.628 199.954,448.628 C201.766,448.628 202.666,449.24 202.666,450.392 Z M198.538,453.236 C198.538,453.728 198.838,454.028 199.582,454.028 C200.494,454.028 200.962,453.536 200.962,452.624 L200.962,451.964 C200.806,452.108 200.506,452.192 199.93,452.264 C199.054,452.372 198.538,452.564 198.538,453.236 Z M207.61,448.628 C207.778,448.628 207.898,448.664 207.982,448.688 L207.982,450.272 C207.814,450.236 207.61,450.212 207.37,450.212 C206.134,450.212 205.69,451.064 205.69,452.204 L205.69,455 L203.986,455 L203.986,448.796 L205.606,448.796 L205.606,449.948 L205.63,449.948 C205.954,449.168 206.758,448.628 207.61,448.628 Z M211.126,448.628 C212.014,448.628 212.59,448.964 212.974,449.624 L212.998,449.624 L212.998,448.796 L214.618,448.796 L214.618,454.616 C214.618,456.224 213.682,457.352 211.414,457.352 C209.974,457.352 208.738,456.62 208.666,455.36 L210.358,455.36 C210.502,455.96 210.97,456.212 211.63,456.212 C212.506,456.212 212.998,455.66 212.998,454.712 L212.998,453.86 L212.974,453.86 C212.638,454.46 211.954,454.82 211.114,454.82 C209.326,454.82 208.462,453.512 208.462,451.7 C208.462,450.116 209.386,448.628 211.126,448.628 Z M210.166,451.676 C210.166,452.684 210.562,453.536 211.546,453.536 C212.47,453.536 212.998,452.78 212.998,451.808 C212.998,450.944 212.734,449.912 211.534,449.912 C210.658,449.912 210.166,450.656 210.166,451.676 Z M218.854,448.628 C220.81,448.628 221.878,450.164 221.878,452 C221.878,452.096 221.866,452.312 221.866,452.312 L217.39,452.312 C217.438,453.38 217.93,453.884 218.902,453.884 C219.55,453.884 220.126,453.512 220.258,453.08 L221.758,453.08 C221.302,454.484 220.342,455.168 218.854,455.168 C216.886,455.168 215.686,453.812 215.686,451.904 C215.686,450.032 216.982,448.628 218.854,448.628 Z M217.39,451.232 L220.162,451.232 C219.994,450.296 219.586,449.912 218.794,449.912 C217.966,449.912 217.462,450.416 217.39,451.232 Z M223.33,446.936 L225.034,446.936 L225.034,448.796 L226.282,448.796 L226.282,449.936 L225.034,449.936 L225.034,453.008 C225.034,453.584 225.178,453.728 225.754,453.728 C225.946,453.728 226.138,453.716 226.282,453.68 L226.282,455.012 C225.994,455.06 225.61,455.072 225.274,455.072 C223.966,455.072 223.33,454.676 223.33,453.572 L223.33,449.936 L222.298,449.936 L222.298,448.796 L223.33,448.796 L223.33,446.936 Z M228.118,453.068 C228.67,453.068 229.126,453.536 229.126,454.088 C229.126,454.604 228.658,455.096 228.13,455.096 C227.578,455.096 227.098,454.652 227.098,454.088 C227.098,453.512 227.578,453.068 228.118,453.068 Z M233.41,448.628 C234.994,448.628 236.242,449.492 236.326,450.98 L234.658,450.98 C234.55,450.272 234.13,449.912 233.398,449.912 C232.366,449.912 231.946,450.92 231.946,451.928 C231.946,452.948 232.366,453.884 233.362,453.884 C234.118,453.884 234.598,453.452 234.718,452.624 L236.362,452.624 C236.134,454.256 235.03,455.168 233.374,455.168 C231.442,455.168 230.242,453.788 230.242,451.988 C230.242,450.008 231.442,448.628 233.41,448.628 Z M240.334,448.628 C242.302,448.628 243.55,449.936 243.55,451.904 C243.55,453.908 242.242,455.168 240.334,455.168 C238.378,455.168 237.13,453.86 237.13,451.904 C237.13,449.924 238.39,448.628 240.334,448.628 Z M238.834,451.904 C238.834,453.164 239.362,453.884 240.334,453.884 C241.342,453.884 241.846,453.128 241.846,451.904 C241.846,450.896 241.498,449.912 240.322,449.912 C239.374,449.912 238.834,450.632 238.834,451.904 Z M248.23,448.628 C249.154,448.628 249.754,449.012 250.042,449.66 C250.498,449 251.17,448.628 251.926,448.628 C253.462,448.628 254.182,449.468 254.182,450.836 L254.182,455 L252.478,455 L252.478,451.412 C252.478,450.596 252.358,449.972 251.434,449.972 C250.63,449.972 250.294,450.536 250.294,451.532 L250.294,455 L248.59,455 L248.59,451.34 C248.59,450.536 248.47,449.972 247.558,449.972 C247.162,449.972 246.406,450.248 246.406,451.388 L246.406,455 L244.702,455 L244.702,448.796 L246.31,448.796 L246.31,449.636 L246.334,449.636 C246.814,448.952 247.462,448.628 248.23,448.628 Z" id="explore-even-more-at"></path>
        </g>
    </g>
</svg>