<?xml version="1.0" encoding="UTF-8"?>
<svg width="30px" height="30px" viewBox="0 0 30 30" version="1.1" xmlns="http://www.w3.org/2000/svg" xmlns:xlink="http://www.w3.org/1999/xlink">
    <!-- Generator: Sketch 49.1 (51147) - http://www.bohemiancoding.com/sketch -->
    <title>Bullseye_Red Copy 7</title>
    <desc>Created with Sketch.</desc>
    <defs>
        <polygon id="path-1" points="0 0 30 0 30 29.9997917 0 29.9997917"></polygon>
    </defs>
    <g id="Total_Dorm_360" stroke="none" stroke-width="1" fill="none" fill-rule="evenodd">
        <g id="360_Mobile_01" transform="translate(-10.000000, -10.000000)">
            <g id="Bullseye_White" transform="translate(10.000000, 10.000000)">
                <g id="Page-1">
                    <mask id="mask-2" fill="white">
                        <use xlink:href="#path-1"></use>
                    </mask>
                    <g id="Clip-2"></g>
                    <path d="M14.9995833,20.078125 C17.8558333,20.078125 20.1720833,17.761875 20.1720833,14.9047917 C20.1720833,12.046875 17.8558333,9.731875 14.9995833,9.731875 C12.1429167,9.731875 9.825,12.046875 9.825,14.9047917 C9.825,17.761875 12.1429167,20.078125 14.9995833,20.078125 M14.9995833,24.9635417 C20.5008333,24.9635417 24.9625,20.503125 24.9625,15.001875 C24.9625,9.498125 20.5008333,5.036875 14.9995833,5.036875 C9.49708333,5.036875 5.03625,9.498125 5.03625,15.001875 C5.03625,20.503125 9.49708333,24.9635417 14.9995833,24.9635417 M0,15.001875 C0,6.71520833 6.71458333,-0.000208333333 14.9995833,-0.000208333333 C23.2841667,-0.000208333333 30,6.71520833 30,15.001875 C30,23.2835417 23.2841667,29.9997917 14.9995833,29.9997917 C6.71458333,29.9997917 0,23.2835417 0,15.001875" id="Fill-1" fill="#FFFFFF" mask="url(#mask-2)"></path>
                </g>
            </g>
        </g>
    </g>
</svg>